# xmcd
#
# Track frame offsets:
#	150
#	28756
#	54759
#	75688
#	92209
#	112982
#	130315
#	147550
#	163625
#
# Disc length: 2413 seconds
#
# Revision: 0
# Processed by: cddbd v1.5.2PL0 Copyright (c) Steve Scherf et al.
# Submitted via: EZCDAudioConverter 2.1.7.1
#
DISCID=73096b09
DTITLE=V/A - Africa Airways 2/2
DYEAR=1900
DGENRE=
TTITLE0=Pasteur Lappe - Na Real Sekele Fo Ya
TTITLE1=M'Bamina - Kilowi-Kilowi
TTITLE2=Ekambi Brillant - Aboki (Mon Copain)
TTITLE3=Bongi Makeba - Don't Do It
TTITLE4=Jo Tongo - Piani
TTITLE5=Oscar Harris and The Twinkle Stars - Relax (Before Doin' Sex)
TTITLE6=Bozambo - Get It On The Music
TTITLE7=Misse Ngoh - Tata Ngoh
TTITLE8=Myriam Makeba - Toyota Fantasy [John Bryan Edit]
EXTD=
EXTT0=
EXTT1=
EXTT2=
EXTT3=
EXTT4=
EXTT5=
EXTT6=
EXTT7=
EXTT8=
PLAYORDER=
